<mxfile host="app.diagrams.net" modified="2021-02-22T07:47:54.845Z" agent="5.0 (Windows NT 10.0; Win64; x64) AppleWebKit/537.36 (KHTML, like Gecko) Chrome/88.0.4324.182 Safari/537.36" etag="swNRv1NsNd2DoUOFWwe8" version="14.4.2" type="github">
  <diagram id="C5RBs43oDa-KdzZeNtuy" name="Page-1">
    <mxGraphModel dx="920" dy="514" grid="1" gridSize="10" guides="1" tooltips="1" connect="1" arrows="1" fold="1" page="1" pageScale="1" pageWidth="827" pageHeight="1169" math="0" shadow="0">
      <root>
        <mxCell id="WIyWlLk6GJQsqaUBKTNV-0" />
        <mxCell id="WIyWlLk6GJQsqaUBKTNV-1" parent="WIyWlLk6GJQsqaUBKTNV-0" />
        <mxCell id="5xYWBBhltAUCPFCoQw9m-28" style="edgeStyle=orthogonalEdgeStyle;rounded=0;orthogonalLoop=1;jettySize=auto;html=1;entryX=0.5;entryY=0;entryDx=0;entryDy=0;" edge="1" parent="WIyWlLk6GJQsqaUBKTNV-1" source="5xYWBBhltAUCPFCoQw9m-0" target="5xYWBBhltAUCPFCoQw9m-1">
          <mxGeometry relative="1" as="geometry" />
        </mxCell>
        <mxCell id="5xYWBBhltAUCPFCoQw9m-0" value="서비스 시작" style="rounded=1;whiteSpace=wrap;html=1;fontSize=12;glass=0;strokeWidth=1;shadow=0;" vertex="1" parent="WIyWlLk6GJQsqaUBKTNV-1">
          <mxGeometry x="179" y="80" width="120" height="40" as="geometry" />
        </mxCell>
        <mxCell id="5xYWBBhltAUCPFCoQw9m-4" style="edgeStyle=orthogonalEdgeStyle;rounded=0;orthogonalLoop=1;jettySize=auto;html=1;entryX=0.5;entryY=0;entryDx=0;entryDy=0;" edge="1" parent="WIyWlLk6GJQsqaUBKTNV-1" source="5xYWBBhltAUCPFCoQw9m-5" target="5xYWBBhltAUCPFCoQw9m-12">
          <mxGeometry relative="1" as="geometry">
            <mxPoint x="386" y="330" as="targetPoint" />
          </mxGeometry>
        </mxCell>
        <mxCell id="5xYWBBhltAUCPFCoQw9m-13" style="edgeStyle=orthogonalEdgeStyle;rounded=0;orthogonalLoop=1;jettySize=auto;html=1;entryX=0.5;entryY=0;entryDx=0;entryDy=0;" edge="1" parent="WIyWlLk6GJQsqaUBKTNV-1" source="5xYWBBhltAUCPFCoQw9m-14" target="5xYWBBhltAUCPFCoQw9m-2">
          <mxGeometry relative="1" as="geometry" />
        </mxCell>
        <mxCell id="5xYWBBhltAUCPFCoQw9m-1" value="세션 id 유무" style="rhombus;whiteSpace=wrap;html=1;shadow=0;fontFamily=Helvetica;fontSize=12;align=center;strokeWidth=1;spacing=6;spacingTop=-4;" vertex="1" parent="WIyWlLk6GJQsqaUBKTNV-1">
          <mxGeometry x="189" y="150" width="100" height="80" as="geometry" />
        </mxCell>
        <mxCell id="5xYWBBhltAUCPFCoQw9m-16" style="edgeStyle=orthogonalEdgeStyle;rounded=0;orthogonalLoop=1;jettySize=auto;html=1;entryX=0.5;entryY=1;entryDx=0;entryDy=0;" edge="1" parent="WIyWlLk6GJQsqaUBKTNV-1" source="5xYWBBhltAUCPFCoQw9m-17" target="5xYWBBhltAUCPFCoQw9m-12">
          <mxGeometry relative="1" as="geometry" />
        </mxCell>
        <mxCell id="5xYWBBhltAUCPFCoQw9m-19" value="" style="edgeStyle=orthogonalEdgeStyle;rounded=0;orthogonalLoop=1;jettySize=auto;html=1;" edge="1" parent="WIyWlLk6GJQsqaUBKTNV-1" source="5xYWBBhltAUCPFCoQw9m-2" target="5xYWBBhltAUCPFCoQw9m-11">
          <mxGeometry relative="1" as="geometry" />
        </mxCell>
        <mxCell id="5xYWBBhltAUCPFCoQw9m-2" value="카트 번호 조회" style="rhombus;whiteSpace=wrap;html=1;shadow=0;fontFamily=Helvetica;fontSize=12;align=center;strokeWidth=1;spacing=6;spacingTop=-4;" vertex="1" parent="WIyWlLk6GJQsqaUBKTNV-1">
          <mxGeometry x="189" y="320" width="100" height="80" as="geometry" />
        </mxCell>
        <mxCell id="5xYWBBhltAUCPFCoQw9m-5" value="없음" style="text;html=1;align=center;verticalAlign=middle;resizable=0;points=[];autosize=1;" vertex="1" parent="WIyWlLk6GJQsqaUBKTNV-1">
          <mxGeometry x="366" y="210" width="40" height="20" as="geometry" />
        </mxCell>
        <mxCell id="5xYWBBhltAUCPFCoQw9m-6" style="edgeStyle=orthogonalEdgeStyle;rounded=0;orthogonalLoop=1;jettySize=auto;html=1;entryX=0.5;entryY=0;entryDx=0;entryDy=0;" edge="1" parent="WIyWlLk6GJQsqaUBKTNV-1" source="5xYWBBhltAUCPFCoQw9m-1" target="5xYWBBhltAUCPFCoQw9m-5">
          <mxGeometry relative="1" as="geometry">
            <mxPoint x="289" y="190" as="sourcePoint" />
            <mxPoint x="386" y="330" as="targetPoint" />
          </mxGeometry>
        </mxCell>
        <mxCell id="5xYWBBhltAUCPFCoQw9m-21" value="" style="edgeStyle=orthogonalEdgeStyle;rounded=0;orthogonalLoop=1;jettySize=auto;html=1;entryX=0.5;entryY=0;entryDx=0;entryDy=0;dashed=1;fillColor=#ffe6cc;strokeColor=#FF3333;" edge="1" parent="WIyWlLk6GJQsqaUBKTNV-1" source="5xYWBBhltAUCPFCoQw9m-11" target="5xYWBBhltAUCPFCoQw9m-22">
          <mxGeometry relative="1" as="geometry">
            <mxPoint x="239" y="600" as="targetPoint" />
          </mxGeometry>
        </mxCell>
        <mxCell id="5xYWBBhltAUCPFCoQw9m-37" value="" style="edgeStyle=orthogonalEdgeStyle;rounded=0;orthogonalLoop=1;jettySize=auto;html=1;" edge="1" parent="WIyWlLk6GJQsqaUBKTNV-1" source="5xYWBBhltAUCPFCoQw9m-11" target="5xYWBBhltAUCPFCoQw9m-36">
          <mxGeometry relative="1" as="geometry" />
        </mxCell>
        <mxCell id="5xYWBBhltAUCPFCoQw9m-11" value="카트 컵타입 조회" style="rounded=1;whiteSpace=wrap;html=1;fontSize=12;glass=0;strokeWidth=1;shadow=0;" vertex="1" parent="WIyWlLk6GJQsqaUBKTNV-1">
          <mxGeometry x="179" y="450" width="120" height="40" as="geometry" />
        </mxCell>
        <mxCell id="5xYWBBhltAUCPFCoQw9m-12" value="&lt;code&gt;ApiException&lt;br&gt;&lt;/code&gt;" style="rounded=1;whiteSpace=wrap;html=1;fontSize=12;glass=0;strokeWidth=1;shadow=0;" vertex="1" parent="WIyWlLk6GJQsqaUBKTNV-1">
          <mxGeometry x="326" y="280" width="120" height="40" as="geometry" />
        </mxCell>
        <mxCell id="5xYWBBhltAUCPFCoQw9m-14" value="존재" style="text;html=1;align=center;verticalAlign=middle;resizable=0;points=[];autosize=1;" vertex="1" parent="WIyWlLk6GJQsqaUBKTNV-1">
          <mxGeometry x="219" y="260" width="40" height="20" as="geometry" />
        </mxCell>
        <mxCell id="5xYWBBhltAUCPFCoQw9m-15" style="edgeStyle=orthogonalEdgeStyle;rounded=0;orthogonalLoop=1;jettySize=auto;html=1;entryX=0.5;entryY=0;entryDx=0;entryDy=0;" edge="1" parent="WIyWlLk6GJQsqaUBKTNV-1" source="5xYWBBhltAUCPFCoQw9m-1" target="5xYWBBhltAUCPFCoQw9m-14">
          <mxGeometry relative="1" as="geometry">
            <mxPoint x="239" y="230" as="sourcePoint" />
            <mxPoint x="239" y="290" as="targetPoint" />
          </mxGeometry>
        </mxCell>
        <mxCell id="5xYWBBhltAUCPFCoQw9m-17" value="없음" style="text;html=1;align=center;verticalAlign=middle;resizable=0;points=[];autosize=1;" vertex="1" parent="WIyWlLk6GJQsqaUBKTNV-1">
          <mxGeometry x="366" y="330" width="40" height="20" as="geometry" />
        </mxCell>
        <mxCell id="5xYWBBhltAUCPFCoQw9m-18" style="edgeStyle=orthogonalEdgeStyle;rounded=0;orthogonalLoop=1;jettySize=auto;html=1;entryX=0.5;entryY=1;entryDx=0;entryDy=0;" edge="1" parent="WIyWlLk6GJQsqaUBKTNV-1" source="5xYWBBhltAUCPFCoQw9m-2" target="5xYWBBhltAUCPFCoQw9m-17">
          <mxGeometry relative="1" as="geometry">
            <mxPoint x="289" y="370" as="sourcePoint" />
            <mxPoint x="386" y="320" as="targetPoint" />
            <Array as="points">
              <mxPoint x="386" y="360" />
            </Array>
          </mxGeometry>
        </mxCell>
        <mxCell id="5xYWBBhltAUCPFCoQw9m-24" style="edgeStyle=orthogonalEdgeStyle;rounded=0;orthogonalLoop=1;jettySize=auto;html=1;entryX=0.5;entryY=0;entryDx=0;entryDy=0;" edge="1" parent="WIyWlLk6GJQsqaUBKTNV-1" source="5xYWBBhltAUCPFCoQw9m-22" target="5xYWBBhltAUCPFCoQw9m-23">
          <mxGeometry relative="1" as="geometry" />
        </mxCell>
        <mxCell id="5xYWBBhltAUCPFCoQw9m-27" style="edgeStyle=orthogonalEdgeStyle;rounded=0;orthogonalLoop=1;jettySize=auto;html=1;entryX=0.5;entryY=0;entryDx=0;entryDy=0;" edge="1" parent="WIyWlLk6GJQsqaUBKTNV-1" source="5xYWBBhltAUCPFCoQw9m-22" target="5xYWBBhltAUCPFCoQw9m-25">
          <mxGeometry relative="1" as="geometry" />
        </mxCell>
        <mxCell id="5xYWBBhltAUCPFCoQw9m-22" value="&#xa;&#xa;&lt;span style=&quot;color: rgb(0, 0, 0); font-family: helvetica; font-size: 12px; font-style: normal; font-weight: 400; letter-spacing: normal; text-align: center; text-indent: 0px; text-transform: none; word-spacing: 0px; background-color: rgb(248, 249, 250); display: inline; float: none;&quot;&gt;머그컵 체크&lt;/span&gt;&#xa;&#xa;" style="rhombus;whiteSpace=wrap;html=1;" vertex="1" parent="WIyWlLk6GJQsqaUBKTNV-1">
          <mxGeometry x="379" y="530" width="100" height="80" as="geometry" />
        </mxCell>
        <mxCell id="5xYWBBhltAUCPFCoQw9m-26" style="edgeStyle=orthogonalEdgeStyle;rounded=0;orthogonalLoop=1;jettySize=auto;html=1;entryX=0.5;entryY=0;entryDx=0;entryDy=0;" edge="1" parent="WIyWlLk6GJQsqaUBKTNV-1" source="5xYWBBhltAUCPFCoQw9m-23" target="5xYWBBhltAUCPFCoQw9m-25">
          <mxGeometry relative="1" as="geometry" />
        </mxCell>
        <mxCell id="5xYWBBhltAUCPFCoQw9m-23" value="컵타입 변경(일회용)" style="rounded=1;whiteSpace=wrap;html=1;" vertex="1" parent="WIyWlLk6GJQsqaUBKTNV-1">
          <mxGeometry x="529" y="660" width="120" height="60" as="geometry" />
        </mxCell>
        <mxCell id="5xYWBBhltAUCPFCoQw9m-25" value="완료" style="rounded=1;whiteSpace=wrap;html=1;" vertex="1" parent="WIyWlLk6GJQsqaUBKTNV-1">
          <mxGeometry x="369" y="770" width="120" height="60" as="geometry" />
        </mxCell>
        <mxCell id="5xYWBBhltAUCPFCoQw9m-39" value="" style="edgeStyle=orthogonalEdgeStyle;rounded=0;orthogonalLoop=1;jettySize=auto;html=1;strokeColor=#000000;" edge="1" parent="WIyWlLk6GJQsqaUBKTNV-1" source="5xYWBBhltAUCPFCoQw9m-36" target="5xYWBBhltAUCPFCoQw9m-38">
          <mxGeometry relative="1" as="geometry" />
        </mxCell>
        <mxCell id="5xYWBBhltAUCPFCoQw9m-36" value="컵타일 일괄 변경&lt;br&gt;(일회용 -&amp;gt; 리저블&lt;br&gt;, 리저블 -&amp;gt; 일회용)" style="whiteSpace=wrap;html=1;rounded=1;shadow=0;strokeWidth=1;glass=0;" vertex="1" parent="WIyWlLk6GJQsqaUBKTNV-1">
          <mxGeometry x="179" y="595" width="120" height="60" as="geometry" />
        </mxCell>
        <mxCell id="5xYWBBhltAUCPFCoQw9m-38" value="완료" style="whiteSpace=wrap;html=1;rounded=1;shadow=0;strokeWidth=1;glass=0;" vertex="1" parent="WIyWlLk6GJQsqaUBKTNV-1">
          <mxGeometry x="179" y="735" width="120" height="60" as="geometry" />
        </mxCell>
      </root>
    </mxGraphModel>
  </diagram>
</mxfile>
